# xmcd
#
# Track frame offsets: 
#        150
#        22403
#        45699
#        65723
#        88330
#        111985
#        131906
#        148085
#        171067
#        186347
#        205918
#        224296
#
# Disc length: 3290 seconds
#
# Revision: 0
# Processed by: cddbd v1.5.2PL0 Copyright (c) Steve Scherf et al.
# Submitted via: ExactAudioCopy v0.99pb2
#
DISCID=c80cd80c
DTITLE=Wallace Coleman - Stretch My Money
DYEAR=2000
DGENRE=Blues
TTITLE0=Mojo Hand
TTITLE1=Spare Woman
TTITLE2=Dead Presidents
TTITLE3=Stretch My Money
TTITLE4=Bring It On Home
TTITLE5=Shake Me
TTITLE6=Strong Love
TTITLE7=Off The Hook
TTITLE8=Dangerous Man
TTITLE9=Sugar To Shame
TTITLE10=Who's Been Talking
TTITLE11=Homeless People
EXTD=
EXTT0=
EXTT1=
EXTT2=
EXTT3=
EXTT4=
EXTT5=
EXTT6=
EXTT7=
EXTT8=
EXTT9=
EXTT10=
EXTT11=
PLAYORDER=
